<svg version="1.2" xmlns="http://www.w3.org/2000/svg" viewBox="0 0 1547 1571" width="1547" height="1571">
	<title>Turkcell_logo-svg</title>
	<defs>
		<clipPath clipPathUnits="userSpaceOnUse" id="cp1">
			<path d="m-760.54-2243.37h8563.53v6056.69h-8563.53z"/>
		</clipPath>
	</defs>
	<style>
		.s0 { fill: #ffc40c } 
	</style>
	<g id="Layer">
		<g id="Clip-Path" clip-path="url(#cp1)">
			<path id="Layer" class="s0" d="m1425.3 367.3c-56.9-90.5-127.1-164.8-208.5-222.8-81.3-58-174.9-98.7-278.7-123.1-171.9-40.7-337.7-22.4-498.4 49.9-88.5 39.6-167.8 94.6-235 163.8q-126.6 131.2-183 296c0 1-1.1 2.1-1.1 3.1-1 4-2 8.1-4 12.2-38.7 127.2-2.1 197.4 53.9 138.4 2-3.1 4.1-5.1 7.1-7.2q1.5-1.5 3.1-3c65.1-82.4 169.8-151.6 169.8-151.6q39.7-27.5 82.4-51.9c32.6-19.3 67.1-36.6 98.7-48.8 0 0 29.5-13.3 37.6-55 0-1 0-2 0-2v-1c5.1-34.6 42.7-129.2 146.5-135.3 32.5-4.1 65.1 1 93.6 15.2 49.8 24.4 88.5 72.3 96.6 129.2 6.1 45.8-5.1 89.6-28.5 123.1-1 2.1-3 4.1-4.1 6.1 0 1.1-1 1.1-1 2.1-19.3 25.4-46.8 44.7-78.3 55.9-19.3 7.2-38.6 11.2-57 11.2-12.2 1-24.4 0-37.6-3-14.2-3.1-28.5-8.2-39.7-14.3-20.3-9.1-36.6-20.3-42.7-25.4-5.1-4.1-10.2-7.1-15.2-8.1-11.2-2.1-20.4 0-26.5 3-4.1 2-6.1 3.1-8.1 5.1-25.5 20.3-48.8 42.7-71.2 65.1-59 62.1-108.9 133.3-132.3 167.9-12.2 19.3-24.4 39.7-35.6 61-10.1 19.4-19.3 38.7-28.4 59-14.3 31.6-26.5 65.2-38.7 100.8-1 2-1 3-2 5-1 2.1-1 4.1-2.1 7.2-1 2-1 4-2 7.1-72.2 246.2 57 387.6 165.8 240.1q9.2-13.7 18.3-27.5c115-199.4 347.9-340.8 347.9-340.8 14.2-9.2 28.5-17.3 42.7-26.5 0 0 1-1 3.1-1 39.6-22.4 81.3-43.7 123-61 37.7-16.3 77.3-32.6 110.9-40.7 0 0 38.7-10.2 48.8-58 7.2-34.6 32.6-84.5 88.5-110.9 13.2-7.1 27.5-12.2 40.7-15.3 15.3-3 30.5-4 44.8-4q13.7 0 24.4 3c71.2 14.3 129.2 72.3 138.3 149.6 10.2 93.6-54.9 178-147.5 189.2-45.7 6.1-88.5-4.1-124.1-31.5-39.6-16.3-71.2-6.1-82.4-1-34.5 19.3-68.1 40.7-100.7 63-60 44.8-106.8 90.6-126.1 109.9-41.7 42.8-77.3 88.5-109.8 136.4-2.1 3-3.1 5-5.1 8.1 0 1-1 1-1 2-32.6 51.9-67.2 119.1-95.7 199.4-2 6.1-4 12.3-6.1 19.4-30.5 103.8 35.6 144.4 111.9 159.7 0 0 60 11.2 146.5 5.1 5.1 0 9.2-1 13.2-1 21.4-3.1 43.8-5.1 65.1-9.2 149.5-25.4 280.8-87.5 393.7-189.2 141.3-127.2 226.8-285.9 253.2-474.1 27.5-189.3-9.1-366.3-111.9-528.1z"/>
		</g>
	</g>
</svg>