<svg version="1.2" xmlns="http://www.w3.org/2000/svg" viewBox="0 0 1590 356" width="1590" height="356">
	<title>Turkcell_logo-svg</title>
	<defs>
		<clipPath clipPathUnits="userSpaceOnUse" id="cp1">
			<path d="m-171.74-505.98h1933.71v1367.27h-1933.71z"/>
		</clipPath>
		<clipPath clipPathUnits="userSpaceOnUse" id="cp2">
			<path d="m-171.74-505.98h1933.71v1367.27h-1933.71z"/>
		</clipPath>
		<clipPath clipPathUnits="userSpaceOnUse" id="cp3">
			<path d="m-171.74-505.98h1933.71v1367.27h-1933.71z"/>
		</clipPath>
		<clipPath clipPathUnits="userSpaceOnUse" id="cp4">
			<path d="m-171.74-505.98h1933.71v1367.27h-1933.71z"/>
		</clipPath>
		<clipPath clipPathUnits="userSpaceOnUse" id="cp5">
			<path d="m-171.74-505.98h1933.71v1367.27h-1933.71z"/>
		</clipPath>
		<clipPath clipPathUnits="userSpaceOnUse" id="cp6">
			<path d="m-171.74-505.98h1933.71v1367.27h-1933.71z"/>
		</clipPath>
		<clipPath clipPathUnits="userSpaceOnUse" id="cp7">
			<path d="m-171.74-505.98h1933.71v1367.27h-1933.71z"/>
		</clipPath>
		<clipPath clipPathUnits="userSpaceOnUse" id="cp8">
			<path d="m-171.74-505.98h1933.71v1367.27h-1933.71z"/>
		</clipPath>
		<clipPath clipPathUnits="userSpaceOnUse" id="cp9">
			<path d="m-171.74-505.98h1933.71v1367.27h-1933.71z"/>
		</clipPath>
	</defs>
	<style>
		.s0 { fill: #034ea2 } 
		.s1 { fill: #ffc40c } 
	</style>
	<g id="Layer">
		<g id="Clip-Path" clip-path="url(#cp1)">
			<path id="Layer" fill-rule="evenodd" class="s0" d="m815.7 191.1l41.5 74.9h-48.2l-35.6-68h-20.7v68h-41.8v-176.7h74.7c18.8 0 34.2 5.3 45.7 16.1 11 10.1 16.5 23.4 16.5 39.1 0 12.1-3.6 22.5-10.8 31.2-5.5 6.9-12.6 11.9-21.3 15.4zm-9.7-46.4c0-5.7-2-10.3-6.2-14-4.3-3.7-9.9-5.5-16.7-5.5h-30.6v39h30.6c7.1 0 12.4-1.8 16.7-5.5 4.2-3.7 6.2-8.3 6.2-14z"/>
		</g>
		<g id="Clip-Path" clip-path="url(#cp2)">
			<path id="Layer" class="s0" d="m647.1 203.3c0 8.9-2.5 15.8-7.8 20.9-5.1 5-12 7.5-20.9 7.5-9 0-15.9-2.5-20.9-7.5-5.1-5.1-7.6-12-7.6-20.9v-114h-41.8v115.1c0 18.6 6.9 34 20.2 45.7 13.3 11.5 30.1 17.2 50.1 17.2 19.7 0 36.7-5.7 50-17.2 13.6-11.7 20.3-27.1 20.3-45.7v-115.1h-41.6z"/>
		</g>
		<g id="Clip-Path" clip-path="url(#cp3)">
			<path id="Layer" class="s0" d="m393.5 125.2h47.8v140.8h41.6v-140.8h47.7v-35.9h-137.1z"/>
		</g>
		<g id="Clip-Path" clip-path="url(#cp4)">
			<path id="Layer" class="s0" d="m1024.7 89.3h-51.7l-59.9 69.2v-69.2h-41.8v176.7h41.8v-53.1l20.2-22.5 45.7 75.6h48.7l-66.6-105.5z"/>
		</g>
		<g id="Clip-Path" clip-path="url(#cp5)">
			<path id="Layer" class="s0" d="m1511.4 230.1v-140.8h-41.8v176.7h120.3v-35.9z"/>
		</g>
		<g id="Clip-Path" clip-path="url(#cp6)">
			<path id="Layer" class="s0" d="m1378.9 89.3h-41.8v176.7h116.6v-35.9h-74.8z"/>
		</g>
		<g id="Clip-Path" clip-path="url(#cp7)">
			<path id="Layer" class="s0" d="m1099.8 123.1c14.9 0 24.1 7.4 28.2 22.3l0.7 2.3h42.5l-0.7-3.7c-3.2-18.4-11.5-32.6-24.1-42.3-12.6-9.6-28.2-14.7-46.6-14.7-7.4 0-14.3 1-20.9 2.6-27.6 6.4-45.7 24.3-55.6 54.9-3.4 11.2-4.4 23.9-4.4 32.6 0 10.1 1.4 20.9 3.5 29.6 4.1 14.9 11.5 28 21.1 37.7 1.4 1.6 2.8 3 4.2 4.3 14 13.1 31.4 19.8 51.9 19.8 18.1 0 33.7-4.8 46.1-14.5 13.1-9.9 21.6-24.3 24.8-42.5l0.7-3.6h-42.5l-0.7 2.3c-3.9 14.9-13.1 22.2-28.2 22.2-9.7 0-17-1.3-24.8-8.2-3.9-4.2-7.1-8.5-9.4-13.6-2.6-5.3-5.3-17-5.3-34 0-21.1 4.6-35.3 14.7-45 6.2-5.7 14-8.5 24.8-8.5z"/>
		</g>
		<g id="Clip-Path" clip-path="url(#cp8)">
			<path id="Layer" class="s0" d="m1188.2 266h126.3v-35.9h-84.5v-35.3h71.9v-35.6h-71.9v-34h84.5v-35.9h-126.3z"/>
		</g>
		<g id="Clip-Path" clip-path="url(#cp9)">
			<path id="Layer" class="s1" d="m321.9 83.4c-12.9-20.5-28.8-37.2-47.1-50.3-18.4-13.1-39.5-22.3-63-27.8-38.8-9.2-76.2-5.1-112.5 11.2-20 9-37.9 21.4-53.1 37q-28.6 29.6-41.3 66.9c0 0.2-0.2 0.4-0.2 0.6-0.3 1-0.5 1.9-1 2.8-8.7 28.7-0.4 44.6 12.2 31.2 0.5-0.7 0.9-1.1 1.6-1.6q0.4-0.3 0.7-0.7c14.7-18.6 38.4-34.2 38.4-34.2q8.9-6.2 18.6-11.7c7.3-4.4 15.1-8.3 22.3-11 0 0 6.6-3 8.5-12.4 0-0.3 0-0.5 0-0.5v-0.2c1.1-7.8 9.6-29.2 33-30.6 7.4-0.9 14.7 0.3 21.2 3.5 11.2 5.5 19.9 16.3 21.8 29.2 1.4 10.3-1.2 20.2-6.5 27.7-0.2 0.5-0.6 1-0.9 1.4 0 0.2-0.2 0.2-0.2 0.5-4.4 5.7-10.6 10.1-17.7 12.6-4.4 1.6-8.7 2.5-12.9 2.5-2.7 0.3-5.5 0-8.4-0.7-3.3-0.6-6.5-1.8-9-3.2-4.6-2-8.3-4.6-9.7-5.7-1.1-0.9-2.3-1.6-3.4-1.8-2.5-0.5-4.6 0-6 0.6-0.9 0.5-1.3 0.7-1.8 1.2-5.8 4.6-11 9.6-16.1 14.7-13.3 14-24.6 30.1-29.8 37.9-2.8 4.4-5.6 8.9-8.1 13.8-2.3 4.3-4.3 8.7-6.4 13.3-3.2 7.1-6 14.7-8.7 22.7-0.3 0.5-0.3 0.7-0.5 1.2-0.2 0.4-0.2 0.9-0.5 1.6-0.2 0.4-0.2 0.9-0.4 1.6-16.3 55.6 12.8 87.5 37.4 54.2q2.1-3.1 4.2-6.2c25.9-45 78.5-76.9 78.5-76.9 3.2-2.1 6.4-4 9.6-6 0 0 0.3-0.2 0.7-0.2 9-5.1 18.4-9.9 27.8-13.8 8.5-3.7 17.5-7.4 25.1-9.2 0 0 8.7-2.3 11-13.1 1.6-7.8 7.3-19.1 20-25 3-1.7 6.2-2.8 9.2-3.5 3.4-0.7 6.9-0.9 10.1-0.9q3.1 0 5.5 0.7c16.1 3.2 29.1 16.3 31.2 33.7 2.3 21.2-12.4 40.2-33.3 42.8-10.3 1.3-20-1-28-7.2-9-3.6-16.1-1.3-18.6-0.2-7.8 4.4-15.4 9.2-22.8 14.3-13.5 10.1-24.1 20.4-28.4 24.8-9.5 9.6-17.5 19.9-24.8 30.7-0.5 0.7-0.7 1.2-1.2 1.9 0 0.2-0.2 0.2-0.2 0.4-7.4 11.7-15.2 26.9-21.6 45.1-0.5 1.3-0.9 2.7-1.4 4.3-6.9 23.4 8.1 32.6 25.3 36.1 0 0 13.5 2.5 33.1 1.1 1.1 0 2-0.2 2.9-0.2 4.9-0.7 9.9-1.2 14.7-2.1 33.8-5.7 63.4-19.7 88.9-42.7 32-28.7 51.2-64.5 57.2-107 6.2-42.7-2-82.7-25.2-119.2z"/>
		</g>
	</g>
</svg>